<mxfile host="Electron" modified="2023-11-28T17:03:17.146Z" agent="Mozilla/5.0 (Windows NT 10.0; Win64; x64) AppleWebKit/537.36 (KHTML, like Gecko) draw.io/22.0.3 Chrome/114.0.5735.289 Electron/25.8.4 Safari/537.36" etag="vkEtEMU9SSatU92huUHH" version="22.0.3" type="device">
  <diagram name="Pagina-1" id="uS4ioDqvzfgHfXR6FTxc">
    <mxGraphModel dx="1674" dy="836" grid="1" gridSize="10" guides="1" tooltips="1" connect="1" arrows="1" fold="1" page="1" pageScale="1" pageWidth="827" pageHeight="1169" math="0" shadow="0">
      <root>
        <mxCell id="0" />
        <mxCell id="1" parent="0" />
        <mxCell id="o_vXm4CRjtsKDtDKjq7Q-1" value="" style="whiteSpace=wrap;html=1;aspect=fixed;" parent="1" vertex="1">
          <mxGeometry x="270" y="70" width="220" height="220" as="geometry" />
        </mxCell>
        <mxCell id="o_vXm4CRjtsKDtDKjq7Q-2" value="OPERAZIONI CLIENT" style="text;html=1;strokeColor=none;fillColor=none;align=center;verticalAlign=middle;whiteSpace=wrap;rounded=0;" parent="1" vertex="1">
          <mxGeometry x="310" y="80" width="160" height="30" as="geometry" />
        </mxCell>
        <mxCell id="o_vXm4CRjtsKDtDKjq7Q-3" value="Crea connessione con il server" style="text;html=1;strokeColor=none;fillColor=none;align=center;verticalAlign=middle;whiteSpace=wrap;rounded=0;" parent="1" vertex="1">
          <mxGeometry x="275" y="110" width="210" height="30" as="geometry" />
        </mxCell>
        <mxCell id="o_vXm4CRjtsKDtDKjq7Q-4" value="Muovo racchetta" style="text;html=1;strokeColor=none;fillColor=none;align=center;verticalAlign=middle;whiteSpace=wrap;rounded=0;" parent="1" vertex="1">
          <mxGeometry x="275" y="150" width="210" height="30" as="geometry" />
        </mxCell>
        <mxCell id="o_vXm4CRjtsKDtDKjq7Q-5" value="Termina partita" style="text;html=1;strokeColor=none;fillColor=none;align=center;verticalAlign=middle;whiteSpace=wrap;rounded=0;" parent="1" vertex="1">
          <mxGeometry x="275" y="200" width="210" height="30" as="geometry" />
        </mxCell>
        <mxCell id="o_vXm4CRjtsKDtDKjq7Q-6" style="edgeStyle=orthogonalEdgeStyle;rounded=0;orthogonalLoop=1;jettySize=auto;html=1;exitX=0.5;exitY=0.5;exitDx=0;exitDy=0;exitPerimeter=0;entryX=0;entryY=0.5;entryDx=0;entryDy=0;" parent="1" source="o_vXm4CRjtsKDtDKjq7Q-7" target="o_vXm4CRjtsKDtDKjq7Q-5" edge="1">
          <mxGeometry relative="1" as="geometry" />
        </mxCell>
        <mxCell id="o_vXm4CRjtsKDtDKjq7Q-7" value="Player 1" style="shape=umlActor;verticalLabelPosition=bottom;verticalAlign=top;html=1;outlineConnect=0;" parent="1" vertex="1">
          <mxGeometry x="60" y="150" width="30" height="60" as="geometry" />
        </mxCell>
        <mxCell id="o_vXm4CRjtsKDtDKjq7Q-8" style="edgeStyle=orthogonalEdgeStyle;rounded=0;orthogonalLoop=1;jettySize=auto;html=1;exitX=0.5;exitY=0.5;exitDx=0;exitDy=0;exitPerimeter=0;entryX=0;entryY=0.5;entryDx=0;entryDy=0;" parent="1" source="o_vXm4CRjtsKDtDKjq7Q-7" target="o_vXm4CRjtsKDtDKjq7Q-3" edge="1">
          <mxGeometry relative="1" as="geometry" />
        </mxCell>
        <mxCell id="o_vXm4CRjtsKDtDKjq7Q-9" style="edgeStyle=orthogonalEdgeStyle;rounded=0;orthogonalLoop=1;jettySize=auto;html=1;exitX=0.5;exitY=0.5;exitDx=0;exitDy=0;exitPerimeter=0;" parent="1" source="o_vXm4CRjtsKDtDKjq7Q-7" target="o_vXm4CRjtsKDtDKjq7Q-4" edge="1">
          <mxGeometry relative="1" as="geometry" />
        </mxCell>
        <mxCell id="o_vXm4CRjtsKDtDKjq7Q-10" style="edgeStyle=orthogonalEdgeStyle;rounded=0;orthogonalLoop=1;jettySize=auto;html=1;exitX=0.5;exitY=0.5;exitDx=0;exitDy=0;exitPerimeter=0;entryX=1;entryY=0.5;entryDx=0;entryDy=0;" parent="1" source="o_vXm4CRjtsKDtDKjq7Q-13" target="o_vXm4CRjtsKDtDKjq7Q-3" edge="1">
          <mxGeometry relative="1" as="geometry" />
        </mxCell>
        <mxCell id="o_vXm4CRjtsKDtDKjq7Q-11" style="edgeStyle=orthogonalEdgeStyle;rounded=0;orthogonalLoop=1;jettySize=auto;html=1;exitX=0.5;exitY=0.5;exitDx=0;exitDy=0;exitPerimeter=0;entryX=1;entryY=0.5;entryDx=0;entryDy=0;" parent="1" source="o_vXm4CRjtsKDtDKjq7Q-13" target="o_vXm4CRjtsKDtDKjq7Q-4" edge="1">
          <mxGeometry relative="1" as="geometry" />
        </mxCell>
        <mxCell id="o_vXm4CRjtsKDtDKjq7Q-12" style="edgeStyle=orthogonalEdgeStyle;rounded=0;orthogonalLoop=1;jettySize=auto;html=1;exitX=0.5;exitY=0.5;exitDx=0;exitDy=0;exitPerimeter=0;entryX=1;entryY=0.5;entryDx=0;entryDy=0;" parent="1" source="o_vXm4CRjtsKDtDKjq7Q-13" target="o_vXm4CRjtsKDtDKjq7Q-5" edge="1">
          <mxGeometry relative="1" as="geometry" />
        </mxCell>
        <mxCell id="o_vXm4CRjtsKDtDKjq7Q-13" value="Player 2" style="shape=umlActor;verticalLabelPosition=bottom;verticalAlign=top;html=1;outlineConnect=0;" parent="1" vertex="1">
          <mxGeometry x="720" y="170" width="30" height="60" as="geometry" />
        </mxCell>
        <mxCell id="o_vXm4CRjtsKDtDKjq7Q-14" value="" style="whiteSpace=wrap;html=1;aspect=fixed;" parent="1" vertex="1">
          <mxGeometry x="260" y="360" width="270" height="270" as="geometry" />
        </mxCell>
        <mxCell id="o_vXm4CRjtsKDtDKjq7Q-15" value="OPERAZIONI SERVER" style="text;html=1;strokeColor=none;fillColor=none;align=center;verticalAlign=middle;whiteSpace=wrap;rounded=0;" parent="1" vertex="1">
          <mxGeometry x="315" y="370" width="160" height="30" as="geometry" />
        </mxCell>
        <mxCell id="o_vXm4CRjtsKDtDKjq7Q-16" value="Controllo connessione client" style="text;html=1;strokeColor=none;fillColor=none;align=center;verticalAlign=middle;whiteSpace=wrap;rounded=0;" parent="1" vertex="1">
          <mxGeometry x="290" y="400" width="210" height="30" as="geometry" />
        </mxCell>
        <mxCell id="o_vXm4CRjtsKDtDKjq7Q-17" value="Ricezione messaggio" style="text;html=1;strokeColor=none;fillColor=none;align=center;verticalAlign=middle;whiteSpace=wrap;rounded=0;" parent="1" vertex="1">
          <mxGeometry x="290" y="440" width="210" height="30" as="geometry" />
        </mxCell>
        <mxCell id="o_vXm4CRjtsKDtDKjq7Q-18" value="Invia messaggio" style="text;html=1;strokeColor=none;fillColor=none;align=center;verticalAlign=middle;whiteSpace=wrap;rounded=0;" parent="1" vertex="1">
          <mxGeometry x="290" y="480" width="210" height="30" as="geometry" />
        </mxCell>
        <mxCell id="o_vXm4CRjtsKDtDKjq7Q-19" value="Controlla movimenti e posizioni" style="text;html=1;strokeColor=none;fillColor=none;align=center;verticalAlign=middle;whiteSpace=wrap;rounded=0;" parent="1" vertex="1">
          <mxGeometry x="290" y="520" width="210" height="30" as="geometry" />
        </mxCell>
        <mxCell id="o_vXm4CRjtsKDtDKjq7Q-20" style="edgeStyle=orthogonalEdgeStyle;rounded=0;orthogonalLoop=1;jettySize=auto;html=1;exitX=0.5;exitY=0.5;exitDx=0;exitDy=0;exitPerimeter=0;" parent="1" source="o_vXm4CRjtsKDtDKjq7Q-24" target="o_vXm4CRjtsKDtDKjq7Q-18" edge="1">
          <mxGeometry relative="1" as="geometry" />
        </mxCell>
        <mxCell id="o_vXm4CRjtsKDtDKjq7Q-21" style="edgeStyle=orthogonalEdgeStyle;rounded=0;orthogonalLoop=1;jettySize=auto;html=1;exitX=0.5;exitY=0.5;exitDx=0;exitDy=0;exitPerimeter=0;entryX=0;entryY=0.5;entryDx=0;entryDy=0;" parent="1" source="o_vXm4CRjtsKDtDKjq7Q-24" target="o_vXm4CRjtsKDtDKjq7Q-19" edge="1">
          <mxGeometry relative="1" as="geometry" />
        </mxCell>
        <mxCell id="o_vXm4CRjtsKDtDKjq7Q-22" style="edgeStyle=orthogonalEdgeStyle;rounded=0;orthogonalLoop=1;jettySize=auto;html=1;entryX=0;entryY=0.5;entryDx=0;entryDy=0;" parent="1" target="o_vXm4CRjtsKDtDKjq7Q-28" edge="1">
          <mxGeometry relative="1" as="geometry">
            <mxPoint x="80" y="470" as="sourcePoint" />
          </mxGeometry>
        </mxCell>
        <mxCell id="o_vXm4CRjtsKDtDKjq7Q-23" style="edgeStyle=orthogonalEdgeStyle;rounded=0;orthogonalLoop=1;jettySize=auto;html=1;exitX=0.5;exitY=0.5;exitDx=0;exitDy=0;exitPerimeter=0;entryX=0;entryY=0.5;entryDx=0;entryDy=0;" parent="1" source="o_vXm4CRjtsKDtDKjq7Q-24" target="o_vXm4CRjtsKDtDKjq7Q-29" edge="1">
          <mxGeometry relative="1" as="geometry" />
        </mxCell>
        <mxCell id="o_vXm4CRjtsKDtDKjq7Q-24" value="Server" style="shape=umlActor;verticalLabelPosition=bottom;verticalAlign=top;html=1;outlineConnect=0;" parent="1" vertex="1">
          <mxGeometry x="50" y="440" width="30" height="60" as="geometry" />
        </mxCell>
        <mxCell id="o_vXm4CRjtsKDtDKjq7Q-25" style="edgeStyle=orthogonalEdgeStyle;rounded=0;orthogonalLoop=1;jettySize=auto;html=1;exitX=0.5;exitY=0.5;exitDx=0;exitDy=0;exitPerimeter=0;entryX=0;entryY=0.5;entryDx=0;entryDy=0;" parent="1" source="o_vXm4CRjtsKDtDKjq7Q-24" target="o_vXm4CRjtsKDtDKjq7Q-16" edge="1">
          <mxGeometry relative="1" as="geometry" />
        </mxCell>
        <mxCell id="o_vXm4CRjtsKDtDKjq7Q-26" style="edgeStyle=orthogonalEdgeStyle;rounded=0;orthogonalLoop=1;jettySize=auto;html=1;exitX=0.5;exitY=0.5;exitDx=0;exitDy=0;exitPerimeter=0;" parent="1" source="o_vXm4CRjtsKDtDKjq7Q-24" target="o_vXm4CRjtsKDtDKjq7Q-17" edge="1">
          <mxGeometry relative="1" as="geometry" />
        </mxCell>
        <mxCell id="o_vXm4CRjtsKDtDKjq7Q-27" style="edgeStyle=orthogonalEdgeStyle;rounded=0;orthogonalLoop=1;jettySize=auto;html=1;exitX=0.5;exitY=1;exitDx=0;exitDy=0;" parent="1" source="o_vXm4CRjtsKDtDKjq7Q-1" target="o_vXm4CRjtsKDtDKjq7Q-1" edge="1">
          <mxGeometry relative="1" as="geometry" />
        </mxCell>
        <mxCell id="o_vXm4CRjtsKDtDKjq7Q-28" value="Generazione e controllo PowerUp" style="text;html=1;strokeColor=none;fillColor=none;align=center;verticalAlign=middle;whiteSpace=wrap;rounded=0;" parent="1" vertex="1">
          <mxGeometry x="290" y="555" width="210" height="30" as="geometry" />
        </mxCell>
        <mxCell id="o_vXm4CRjtsKDtDKjq7Q-29" value="Controllo colpo pallina su racchette&amp;nbsp;&lt;br&gt;o blocchi di PowerUp" style="text;html=1;strokeColor=none;fillColor=none;align=center;verticalAlign=middle;whiteSpace=wrap;rounded=0;" parent="1" vertex="1">
          <mxGeometry x="290" y="585" width="210" height="45" as="geometry" />
        </mxCell>
      </root>
    </mxGraphModel>
  </diagram>
</mxfile>
